<?xml version="1.0" encoding="utf-8"?>
<!-- Generator: Adobe Illustrator 15.1.0, SVG Export Plug-In . SVG Version: 6.00 Build 0)  -->
<!DOCTYPE svg PUBLIC "-//W3C//DTD SVG 1.1//EN" "http://www.w3.org/Graphics/SVG/1.1/DTD/svg11.dtd">
<svg version="1.1" id="Layer_1" xmlns="http://www.w3.org/2000/svg" xmlns:xlink="http://www.w3.org/1999/xlink" x="0px" y="0px"
	 width="512px" height="512px" viewBox="0 0 512 512" enable-background="new 0 0 512 512" xml:space="preserve">
<g>
	<g>
		<g>
			<path fill="#593E4D" d="M179.889,356.27c0,8.515-2.454,16-7.146,22.621c-6.625,9.346-15.519,12.308-15.373,12.406
				c5.355,3.639,7.387,5.813,12.261,11.971c1.294,1.498,6.599,5.324,8.77,8.502c0.584,0.853,0.446,3.381,0.354,3.859
				c-0.233,1.217-5.82,6.008-13.854,9.293c-10.593,4.336-14.986,4.412-14.986,4.412s-1.436-1.889-2.595-3.545
				c-1.575-2.244-3.69-5.367-6.354-9.361c-2.13-3.516-5.759-10.193-9.875-18.521l-0.373,0.325l0.046,24.72
				c-4.757,0.961-7.925,1.201-21.051,1.479c-9.693,0.205-18.014-1.479-18.014-1.479c-0.008-0.168,0.033-1.769-0.081-4.318
				c-0.393-8.696-1.404-28.963-2.07-45.571c-0.414-13.646-0.66-32.609-2.139-56.754c12.72-1.343,23.626-1.945,34.128-1.945
				C160.435,314.361,179.889,328.332,179.889,356.27z M147.958,371.258c0-4.395-1.854-7.541-5.553-9.436
				c-2.729-1.389-6.147-1.99-10.27-1.807l-0.416,23.731c3.839,0,7.263-0.854,10.27-2.567
				C145.969,378.961,147.958,375.652,147.958,371.258z"/>
		</g>
		<g>
			<g>
				<path fill="#907681" d="M179.889,351.967c0,8.512-2.454,16.002-7.146,22.621c-6.625,9.344-15.519,12.307-15.373,12.404
					c5.355,3.639,7.387,5.816,12.261,11.971c1.956,2.264,7.496,10.486,8.778,12.789c0.184,0.328-5.476,5.582-13.508,8.869
					c-10.593,4.336-14.986,4.41-14.986,4.41s-1.436-1.89-2.595-3.543c-1.575-2.248-3.69-5.369-6.354-9.363
					c-2.13-3.514-5.251-9.438-9.368-17.762h-0.137l-0.697,24.285c-4.757,0.961-7.925,1.201-21.051,1.477
					c-9.693,0.209-18.014-1.477-18.014-1.477c-0.45-1.648-2.151-28.576-3.005-50.06c-0.416-13.646-0.511-32.373-1.99-56.519
					c12.722-1.344,24.331-2.012,34.833-2.012C160.435,310.061,179.889,324.029,179.889,351.967z M148.389,366.957
					c0-4.396-1.852-7.541-5.554-9.439c-2.729-1.387-6.149-1.985-10.269-1.803l-0.416,23.73c3.837,0,7.263-0.855,10.271-2.57
					C146.399,374.656,148.389,371.352,148.389,366.957z"/>
			</g>
		</g>
		<path fill="#BCAAB3" d="M121.536,314.361c37.796,0,57.229,13.188,58.306,39.563c0.028-0.646,0.047-1.299,0.047-1.957
			c0-27.938-19.454-41.906-58.353-41.906c-10.502,0-22.111,0.668-34.833,2.012c0.091,1.443,0.176,2.867,0.261,4.273
			C99.58,315.025,111.105,314.361,121.536,314.361z"/>
		<circle opacity="0.62" fill="#BCAAB3" enable-background="new    " cx="112.933" cy="333.602" r="8.381"/>
		<path opacity="0.62" fill="#BCAAB3" enable-background="new    " d="M111.814,371.598c0,3.086-2.503,5.59-5.59,5.59
			c-3.084,0-5.587-2.504-5.587-5.59c0-3.084,2.503-5.588,5.587-5.588C109.312,366.01,111.814,368.514,111.814,371.598z"/>
		<circle opacity="0.62" fill="#BCAAB3" enable-background="new    " cx="157.916" cy="343.939" r="6.426"/>
		<circle opacity="0.62" fill="#BCAAB3" enable-background="new    " cx="164.342" cy="367.687" r="3.632"/>
		<circle opacity="0.62" fill="#BCAAB3" enable-background="new    " cx="142.549" cy="394.51" r="3.633"/>
		<circle opacity="0.62" fill="#BCAAB3" enable-background="new    " cx="164.343" cy="409.039" r="5.889"/>
		<circle opacity="0.62" fill="#BCAAB3" enable-background="new    " cx="118.52" cy="409.039" r="5.587"/>
	</g>
	<g>
		
			<linearGradient id="SVGID_1_" gradientUnits="userSpaceOnUse" x1="375.8713" y1="32.9941" x2="435.9641" y2="32.9941" gradientTransform="matrix(1 0 0 -1 -41.6001 348.0098)">
			<stop  offset="0" style="stop-color:#907681"/>
			<stop  offset="0.2916" style="stop-color:#8D717C"/>
			<stop  offset="0.6543" style="stop-color:#83616E"/>
			<stop  offset="1" style="stop-color:#764C5A"/>
		</linearGradient>
		<path fill="url(#SVGID_1_)" d="M379.666,295.266c-22.616-8.287-41.921,5.68-45.396,10.146c1.268,1.934,2.345,3.893,2.589,5.895
			c18.813-12.449,53.49,8.76,55.483,26.035c3.665-10.201,2.183-18.344-3.121-29.939
			C387.229,303.033,383.281,298.564,379.666,295.266z"/>
		<path fill="#2F0E2B" d="M350.672,285.262c-2.643,0.303-6.373,0.654-9.991,1.482c-4.971,2.836-8.998,7.578-10.808,11.424
			c0.894,2.398,2.795,4.801,4.397,7.244c3.475-4.467,22.778-18.434,45.396-10.146C371.872,288.15,361.095,284.059,350.672,285.262z"
			/>
		<path fill="#907681" d="M330.054,292.92c-0.938,1.758-0.826,3.502-0.181,5.248c1.81-3.846,5.837-8.588,10.808-11.424
			C336.175,287.773,331.854,289.549,330.054,292.92z"/>
		<path fill="#907681" d="M325.947,268.659c-2.891-13.227-20.437-17.169-31.982-18.681c-22.256-2.91-44.466,11.999-52.623,31.732
			c-5.274,12.756-9.522,31.84-3.686,45.133c7.138,16.255,29.172,12.007,43.719,14.058c17.908,2.522,46.514,0.733,55.705-17.529
			c4.263-8.475-0.399-15.432-3.794-23.289C328.769,289.627,328.322,279.529,325.947,268.659z"/>
		
			<linearGradient id="SVGID_2_" gradientUnits="userSpaceOnUse" x1="297.2561" y1="91.4971" x2="280.6031" y2="57.6357" gradientTransform="matrix(1 0 0 -1 -41.6001 348.0098)">
			<stop  offset="0" style="stop-color:#7C5563"/>
			<stop  offset="0.3052" style="stop-color:#866673"/>
			<stop  offset="0.6507" style="stop-color:#8E727D"/>
			<stop  offset="1" style="stop-color:#907681"/>
		</linearGradient>
		<path fill="url(#SVGID_2_)" d="M259.509,276.217c-0.697-2.654-2.746-3.289-4.155-5.352c-1.672-2.444,3.413-11.098,4.327-10.327
			c-14.009-11.82-30.425,9.349-31.06,23.069c-0.177,3.807,0,9.086,3.556,11.426c5.404,3.557,12.875,1.924,17.725-1.748
			c3.625-2.746,7.123-6.471,8.896-10.711c0.795-1.902,1.224-3.932,0.809-5.953C259.575,276.488,259.542,276.352,259.509,276.217z"/>
		
			<linearGradient id="SVGID_3_" gradientUnits="userSpaceOnUse" x1="272.6106" y1="74.6768" x2="283.3207" y2="72.7645" gradientTransform="matrix(1 0 0 -1 -41.6001 348.0098)">
			<stop  offset="0" style="stop-color:#FFFFFF"/>
			<stop  offset="1" style="stop-color:#000000"/>
		</linearGradient>
		<path opacity="0.19" fill="url(#SVGID_3_)" enable-background="new    " d="M228.621,283.611
			c0.043,4.424,1.604,13.182,7.257,7.057c4.217-4.568-0.688-7.922,3.121-18.521c1.111-3.102,3.355-7.041,6.304-9.799
			c2.014-1.887,4.046-3.13,6.884-4.373C240.514,254.323,228.541,274.674,228.621,283.611z"/>
		<path fill="#826773" d="M253.939,260.252c-2.271,1.426-3.619,5.021-3.595,7.586c0.024,2.661,2.367,8.959,5.652,8.838
			c0.525-0.02,0.968-0.162,1.336-0.389c1.107-0.68,1.554-2.135,1.729-3.369c0.316-2.179,0.918-4.23,1.288-6.408
			c0.4-2.369,0.571-5.191,2.662-6.755C260.323,259.779,256.346,258.738,253.939,260.252z"/>
		
			<radialGradient id="SVGID_4_" cx="328.637" cy="-4.7251" r="46.968" gradientTransform="matrix(1 0.0096 0.0071 -0.7435 -43.1164 289.8671)" gradientUnits="userSpaceOnUse">
			<stop  offset="0" style="stop-color:#5E3D48"/>
			<stop  offset="0.4677" style="stop-color:#603F4A"/>
			<stop  offset="0.6595" style="stop-color:#664651"/>
			<stop  offset="0.8006" style="stop-color:#71525D"/>
			<stop  offset="0.9162" style="stop-color:#80646F"/>
			<stop  offset="1" style="stop-color:#907681"/>
		</radialGradient>
		<path fill="url(#SVGID_4_)" d="M323.522,278.559c-0.152-0.11-0.308-0.217-0.466-0.313c-6.209-3.996-14.039,0.604-18.949,4.571
			c-3.558,2.871-6.879,6.732-11.506,7.783c-10.819,2.455-21.106-3.49-31.858-1.772c-9.801,1.563-26.803,13.625-22.936,21.711
			c10.655,22.276,46.706,24.094,62.96,19.854c10.468-2.729,24.116-8.119,30.024-17.436
			C334.505,307.107,330.248,283.422,323.522,278.559z"/>
		
			<linearGradient id="SVGID_5_" gradientUnits="userSpaceOnUse" x1="300.8469" y1="66.2124" x2="366.6682" y2="66.2124" gradientTransform="matrix(1 0 0 -1 -41.6001 348.0098)">
			<stop  offset="0" style="stop-color:#F8E8DB"/>
			<stop  offset="0.5866" style="stop-color:#F8E7D9"/>
			<stop  offset="0.8268" style="stop-color:#F8E3D2"/>
			<stop  offset="1" style="stop-color:#F8DDC6"/>
		</linearGradient>
		<path fill="url(#SVGID_5_)" d="M293.162,249.71c-11.11-1.452-28.971-0.436-32.887,12.587c-2.349,7.807-0.171,18.533,1.5,26.318
			c1.854,8.623,4.327,18.482,9.209,25.77c4.594-5.543,8.395-11.953,14.44-16.414c5.763-4.248,12.833-5.846,18.807-9.545
			c6.502-4.031,20.36-12.016,20.822-20.656C325.728,255.104,301.989,250.866,293.162,249.71z"/>
		
			<radialGradient id="SVGID_6_" cx="338.4709" cy="60.4087" r="29.6894" gradientTransform="matrix(0.9971 0.0759 0.0684 -0.8985 -57.1251 302.1257)" gradientUnits="userSpaceOnUse">
			<stop  offset="0" style="stop-color:#FC8856"/>
			<stop  offset="0.2582" style="stop-color:#FC8A59"/>
			<stop  offset="0.4272" style="stop-color:#FC9061"/>
			<stop  offset="0.5707" style="stop-color:#FB9B70"/>
			<stop  offset="0.6998" style="stop-color:#FBAA86"/>
			<stop  offset="0.8194" style="stop-color:#FABEA1"/>
			<stop  offset="0.9303" style="stop-color:#F9D6C2"/>
			<stop  offset="1" style="stop-color:#F8E8DB"/>
		</radialGradient>
		<path opacity="0.34" fill="url(#SVGID_6_)" enable-background="new    " d="M289.79,243.341
			c-4.599-0.657-9.307-0.776-13.933-0.395c-2.891,0.235-8.057,1.58-9.889,4.02c-7.297,9.706-9.231,27.575,2.672,34.714
			c5.381,3.229,11.747,4.316,17.94,4.578c3.318,0.137,6.75,0.885,10.057,0.279c1.69-0.311,3.193-0.977,4.557-2.018
			c1.891-1.443,2.824-1.199,5.167-1.752c5.457-1.287,11.408-3.072,15.036-7.642c2.358-2.963,3.385-6.569,3.563-10.317
			C325.668,249.814,299.522,244.735,289.79,243.341z"/>
		
			<linearGradient id="SVGID_7_" gradientUnits="userSpaceOnUse" x1="367.5618" y1="73.8198" x2="340.9159" y2="39.4024" gradientTransform="matrix(1 0 0 -1 -41.6001 348.0098)">
			<stop  offset="0" style="stop-color:#7C5563"/>
			<stop  offset="0.3052" style="stop-color:#866673"/>
			<stop  offset="0.6507" style="stop-color:#8E727D"/>
			<stop  offset="1" style="stop-color:#907681"/>
		</linearGradient>
		<path fill="url(#SVGID_7_)" d="M324.27,271.995c-10.787-9.334-16.785,6.782-23.947,11.269c-3.11,1.951-7.121,3.699-9.401,6.701
			c-3.03,3.998-4.775,15.074-1.454,19.295c5.729,7.279,13.65,6.717,21.314,4.029c6.013-2.111,12.388-5.457,16.116-10.873
			c5.117-7.443,4.973-22.125-1.434-29.25C325.088,272.75,324.688,272.359,324.27,271.995z"/>
		
			<linearGradient id="SVGID_8_" gradientUnits="userSpaceOnUse" x1="341.1858" y1="63.457" x2="366.8801" y2="63.457" gradientTransform="matrix(1 0 0 -1 -41.6001 348.0098)">
			<stop  offset="0" style="stop-color:#FFFFFF"/>
			<stop  offset="1" style="stop-color:#000000"/>
		</linearGradient>
		<path opacity="0.19" fill="url(#SVGID_8_)" enable-background="new    " d="M314.951,273.17c-1.641,1.92-1.512,4.355-1.9,6.672
			c-0.421,2.521-1.333,3.799-3.092,5.883c-1.576,1.869-3.297,3.594-5.389,4.793c-1.436,0.824-5.127,1.354-4.981,3.605
			c0.133,2.082,3.418,2.785,5.009,2.906c5.795,0.447,12.091-4.314,15.626-8.5c2.134-2.529,4.675-6.652,5.026-10.027
			c0.009-0.064,0.015-0.129,0.021-0.191C325.576,274.488,317.765,269.882,314.951,273.17z"/>
		<path fill="#F8E8DB" d="M391.381,152.225c-8.513-14.691-12.318-31.578-44.634-42.352c-8.219-2.736-19.185-8.706-27.819-9.845
			c-12.58-1.656-25.602-0.315-37.953,3.257c-15.705,4.537-29.854,13.552-42.384,23.837c-10.259,8.413-21.166,16.047-30.963,25.02
			c-6.482,5.932-20.114,15.755-21.242,24.909c-1.254,10.154,6.153,22.299,11,30.642c10.514,18.099,26.136,33.697,43.642,45.055
			c18.98,12.316,41.064,18.896,63.458,21.24c25.162,2.638,51.867,4.707,76.19-3.881c9.628-3.403,20.107-6.662,28.337-12.918
			c12.127-9.215,6.063-21.225,2.877-32.463C405.07,200.682,404.28,174.494,391.381,152.225z"/>
		
			<radialGradient id="SVGID_9_" cx="383.7346" cy="-53.1133" r="36.2251" gradientTransform="matrix(1 0 0 -0.5286 -41.6001 226.3574)" gradientUnits="userSpaceOnUse">
			<stop  offset="0" style="stop-color:#FCB292"/>
			<stop  offset="0.2166" style="stop-color:#FBB99B"/>
			<stop  offset="0.5777" style="stop-color:#FACCB5"/>
			<stop  offset="1" style="stop-color:#F8E8DB"/>
		</radialGradient>
		<ellipse opacity="0.34" fill="url(#SVGID_9_)" enable-background="new    " cx="342.135" cy="254.433" rx="36.22" ry="19.151"/>
		
			<radialGradient id="SVGID_10_" cx="361.176" cy="77.313" r="36.2367" gradientTransform="matrix(0.8141 0.5807 0.2929 -0.4105 -85.0087 38.9495)" gradientUnits="userSpaceOnUse">
			<stop  offset="0" style="stop-color:#FCB292"/>
			<stop  offset="0.2166" style="stop-color:#FBB99B"/>
			<stop  offset="0.5777" style="stop-color:#FACCB5"/>
			<stop  offset="1" style="stop-color:#F8E8DB"/>
		</radialGradient>
		<path opacity="0.34" fill="url(#SVGID_10_)" enable-background="new    " d="M242.786,200.988
			c-16.688-11.035-34.942-12.826-40.776-4.005c-5.834,8.822,2.961,24.921,19.648,35.953c16.684,11.035,34.941,12.829,40.775,4.007
			C268.269,228.122,259.474,212.023,242.786,200.988z"/>
		<path fill="#907681" d="M391.381,152.225c-8.513-14.691-12.318-31.578-44.634-42.352c-8.219-2.736-19.185-8.706-27.819-9.845
			c-12.58-1.656-25.602-0.315-37.953,3.257c-15.705,4.537-29.854,13.552-42.384,23.837c-10.259,8.413-21.166,16.047-30.967,25.02
			c-6.095,5.579-24.265,15.87-21.472,25.962c0.048,0.176,9.258-8.917,9.958-9.592c3.859-3.708,8.782-7.814,13.229-11.459
			c8.873-7.277,18.106-14.106,27.479-20.726c10.339-7.296,21.078-14.225,33.053-18.531c8.71-3.134,18.873-6.04,27.979-2.928
			c4.244,1.452,7.128,4.966,11.506,6.021c5.024,1.212,9.314,3.487,14.207,5.154c4.741,1.618,9.463,3.041,14.273,4.473
			c13.511,4.014,30.896,4.782,38.11,18.996c3.714,7.312,6.718,14.136,9.132,22.019c2.327,7.583,5.642,14.374,9.525,21.258
			c3.263,5.785,5.925,11.894,8.122,18.156c1.734,4.937,2.749,10.083,4.496,15.006c1.645,4.634,6.075,14.894,6.788,25.902
			c6.976-2.813-0.544-22.053-1.891-26.814C405.299,200.995,404.28,174.492,391.381,152.225z"/>
		<path fill="#907681" d="M270.335,85.339c-7.698-6.397-20.913-8.65-30.154-4.748c-15.954,6.737-46.098,59.377-20.64,69.518
			c1.302,0.52,2.846,0.619,4.681,0.176c6.664-1.614,11.776-10.993,15.794-15.981c7.064-8.777,18.586-17.326,29.358-19.985
			c10.223-2.526,18.206-6.839,12.467-17.011C279.206,92.636,274.403,88.714,270.335,85.339z"/>
		<path fill="#F8E8DB" d="M255.334,97.624c-8.651-6.003-15.238-5.392-22.677,2.2c-5.809,5.923-11.771,15.253-12.712,23.642
			c-0.722,6.396-0.8,15.956,2.688,21.546c0.104,0.167,0.206,0.326,0.311,0.479c6.284,9.232,14.941-2.537,20.441-6.642
			c3.864-2.884,8.039-5.477,12.07-7.989c6.869-4.282,17.363-9.009,13.002-19.022C266.225,106.719,259.873,100.771,255.334,97.624z"
			/>
		<path fill="#907681" d="M365.189,116.513c-8.72-6.138-33.315-17.905-56.014-18.671c-5.683-0.191-24.922,1.467-31.079,6.595
			c6.389,2.636,6.938,2.648,20.501,10.934c4.209,2.572,6.312,6.195,7.134,7.951c7.885,16.902,4.555,37.547,0.264,54.008
			c-2.413,9.252-6.071,18.24-11.316,26.017c-5.683,8.422-13.224,15.422-23.042,19.781c5.229,3.646,12.203,4.247,18.025,6.724
			c6.366,2.709,12.471,7.246,19.489,8.081c0.755-4.205-2.345-5.41-3.359-9.435c-2.18-8.671-2.862-20.114-1.095-28.689
			c4.638-22.457,13.698-35.703,28.396-52.28c9.122-10.29,17.555-12.137,21.325-12.219c7.462-0.166,18.447,8.094,22.9,8.221
			c6.51,0.184,4.771-7.688,4.771-7.688S375.916,124.061,365.189,116.513z"/>
		<path fill="#020204" d="M296.001,214.186c-13.032-4.526-25.615-2.385-28.104,4.783c-2.491,7.168,6.062,16.649,19.092,21.171
			c13.031,4.529,25.614,2.385,28.105-4.783C317.58,228.188,309.033,218.709,296.001,214.186z"/>
		
			<linearGradient id="SVGID_11_" gradientUnits="userSpaceOnUse" x1="367.8391" y1="172.7808" x2="402.8118" y2="109.4969" gradientTransform="matrix(1 0 0 -1 -41.6001 348.0098)">
			<stop  offset="0" style="stop-color:#57323F"/>
			<stop  offset="0.3963" style="stop-color:#5A3542"/>
			<stop  offset="0.7013" style="stop-color:#643D4A"/>
			<stop  offset="0.9756" style="stop-color:#744A58"/>
			<stop  offset="1" style="stop-color:#764C5A"/>
		</linearGradient>
		<path fill="url(#SVGID_11_)" d="M361.387,180.783c-7.875-7.989-18.86-11.439-29.704-6.976
			c-18.048,7.426-23.578,35.489-14.098,51.309c5.174,8.631,14.105,13.942,23.991,15.381c13.896,2.027,34.183,0.807,39.119-15.304
			c1.575-5.134,0.471-12.513-1.156-17.481C376.275,197.745,368.673,188.177,361.387,180.783z"/>
		
			<linearGradient id="SVGID_12_" gradientUnits="userSpaceOnUse" x1="265.0256" y1="166.0469" x2="337.3879" y2="166.0469" gradientTransform="matrix(1 0 0 -1 -41.6001 348.0098)">
			<stop  offset="0" style="stop-color:#764C5A"/>
			<stop  offset="0.1996" style="stop-color:#6D4452"/>
			<stop  offset="0.6493" style="stop-color:#5D3744"/>
			<stop  offset="1" style="stop-color:#57323F"/>
		</linearGradient>
		<path fill="url(#SVGID_12_)" d="M278.813,151.348c-18.099-2.697-40.311,7.94-51.846,21.605
			c-6.825,8.083-2.761,18.482,3.543,25.733c3.992,4.59,10.646,8.937,16.133,11.501c6.422,3.001,13.73,3.491,20.685,1.984
			c12.604-2.73,24.034-12.017,26.907-24.78C297.509,172.847,296.987,154.056,278.813,151.348z"/>
		<path fill="#2F0E2B" d="M291.512,136.845c-8.481-6.313-16.954-4.157-25.25,1.179c4.389,0.771,7.641-1.114,13.297,0.455
			c7.998,2.223,13.759,7.304,14.749,2.602C294.678,139.298,292.731,137.751,291.512,136.845z"/>
		<path fill="#2F0E2B" d="M363.698,163.403c-3.59-5.496-9.984-7.649-16.814-6.678c-1.553,0.221-4.094,0.662-4.991,2.451
			c-1.507,2.997,2.67,3.386,4.59,3.419c7.807,0.144,13.301,3.969,19.637,8.018c-0.217-1.094-0.253-2.475-0.637-3.564
			C365.011,165.703,364.408,164.489,363.698,163.403z"/>
		<path fill="#2F0E2B" d="M250.339,108.565c-2.311-1.84-4.857-2.816-7.346-2.848c-3.071-0.038-6.053,1.36-8.386,4.34
			c-4.744,6.063-8.272,15.373-7.261,23.178c0.83,6.404,5.289,6.755,10.181,3.987c2.429-1.372,4.396-3.177,6.534-4.927
			c3.67-2.996,10.896-4.966,12.021-9.913C257.18,117.583,254.023,111.51,250.339,108.565z"/>
		<path fill="#2F0E2B" d="M246.613,325.793c-4.68,0.145-8.341,4.563-8.18,9.869c0.162,5.307,4.086,9.496,8.77,9.352
			c4.679-0.143,8.34-4.561,8.179-9.871C255.218,329.838,251.294,325.65,246.613,325.793z"/>
		<path fill="#2F0E2B" d="M259.526,326.947c-4.677,0.141-8.34,4.561-8.179,9.867c0.163,5.307,4.088,9.494,8.767,9.352
			c4.681-0.145,8.343-4.561,8.184-9.871C268.131,330.99,264.206,326.803,259.526,326.947z"/>
		<path fill="#2F0E2B" d="M272.151,326.893c-4.68,0.146-8.343,4.562-8.181,9.867c0.162,5.307,4.088,9.496,8.768,9.354
			c4.679-0.146,8.344-4.563,8.18-9.869C280.758,330.934,276.828,326.748,272.151,326.893z"/>
		<path fill="#2F0E2B" d="M294.585,327.805c-4.64,0.652-7.794,5.445-7.057,10.703c0.74,5.258,5.099,8.994,9.732,8.338
			c4.638-0.652,7.796-5.441,7.058-10.699C303.577,330.885,299.22,327.154,294.585,327.805z"/>
		<path fill="#2F0E2B" d="M307.338,327.439c-4.635,0.653-7.792,5.446-7.054,10.701c0.739,5.26,5.101,8.991,9.732,8.34
			c4.638-0.65,7.797-5.443,7.057-10.703C316.332,330.521,311.978,326.787,307.338,327.439z"/>
		<path fill="#2F0E2B" d="M319.928,326.168c-4.634,0.65-7.795,5.443-7.057,10.701c0.741,5.258,5.104,8.992,9.734,8.342
			c4.638-0.652,7.797-5.445,7.057-10.705C328.922,329.248,324.564,325.514,319.928,326.168z"/>
		
			<linearGradient id="SVGID_13_" gradientUnits="userSpaceOnUse" x1="349.3381" y1="20.7461" x2="351.0086" y2="2.7881" gradientTransform="matrix(1 0 0 -1 -41.6001 348.0098)">
			<stop  offset="0" style="stop-color:#FFFFFF"/>
			<stop  offset="1" style="stop-color:#000000"/>
		</linearGradient>
		<path opacity="0.19" fill="url(#SVGID_13_)" enable-background="new    " d="M319.928,326.168
			c-2.385,0.336-4.376,1.771-5.648,3.801c-1.835-1.883-4.342-2.893-6.94-2.529c-2.223,0.314-4.097,1.584-5.372,3.394
			c-1.862-2.194-4.568-3.422-7.381-3.026c-4.64,0.651-7.794,5.444-7.057,10.702c0.74,5.259,5.099,8.994,9.732,8.339
			c2.224-0.313,4.099-1.582,5.375-3.392c1.861,2.196,4.566,3.422,7.381,3.024c2.391-0.336,4.38-1.772,5.651-3.801
			c1.836,1.883,4.345,2.894,6.938,2.531c4.638-0.652,7.797-5.445,7.057-10.705C328.922,329.248,324.564,325.514,319.928,326.168z"/>
		
			<linearGradient id="SVGID_14_" gradientUnits="userSpaceOnUse" x1="286.3225" y1="54.0078" x2="338.675" y2="54.0078" gradientTransform="matrix(1 0 0 -1 -41.6001 348.0098)">
			<stop  offset="0" style="stop-color:#FFB700"/>
			<stop  offset="0.1209" style="stop-color:#FFB200"/>
			<stop  offset="0.2719" style="stop-color:#FFA200"/>
			<stop  offset="0.4388" style="stop-color:#FF8900"/>
			<stop  offset="0.6172" style="stop-color:#FF6500"/>
			<stop  offset="0.8047" style="stop-color:#FF3800"/>
			<stop  offset="0.9973" style="stop-color:#FF0100"/>
			<stop  offset="1" style="stop-color:#FF0000"/>
		</linearGradient>
		<path fill="url(#SVGID_14_)" d="M275.898,269.414c-14.188-2.887-27.929,5.783-30.689,19.365
			c-2.76,13.578,6.502,26.926,20.693,29.811c14.185,2.887,27.925-5.783,30.686-19.365
			C299.351,285.646,290.086,272.301,275.898,269.414z"/>
		
			<linearGradient id="SVGID_15_" gradientUnits="userSpaceOnUse" x1="309.092" y1="31.9141" x2="316.6081" y2="72.4203" gradientTransform="matrix(1 0 0 -1 -41.6001 348.0098)">
			<stop  offset="0" style="stop-color:#D90000"/>
			<stop  offset="0.5687" style="stop-color:#EE6700;stop-opacity:0.4313"/>
			<stop  offset="1" style="stop-color:#FFB700;stop-opacity:0"/>
		</linearGradient>
		<path fill="url(#SVGID_15_)" d="M277.885,282.084c-2.53-1.17-5.228-2.9-6.972-5.197c-1.734-2.281-2.587-5.916-5.486-7.005
			c-2.908-1.088-6.075,1.147-8.415,2.78c-5.175,3.611-8.903,9.154-10.188,15.477c-2.762,13.58,6.098,26.844,19.783,29.625
			c5.225,1.064,11.514,0.391,16.349-1.988c6.178-3.034,12.051-10.088,13.689-17.504c0.457-2.065,0.588-4.162,0.303-6.207
			C295.533,281.932,284.446,285.125,277.885,282.084z"/>
		
			<linearGradient id="SVGID_16_" gradientUnits="userSpaceOnUse" x1="308.387" y1="31.0879" x2="315.9041" y2="71.5996" gradientTransform="matrix(1 0 0 -1 -41.6001 348.0098)">
			<stop  offset="0" style="stop-color:#D90000"/>
			<stop  offset="0.5687" style="stop-color:#EE6700"/>
			<stop  offset="1" style="stop-color:#FFB700"/>
		</linearGradient>
		<path fill="url(#SVGID_16_)" d="M277.316,282.941c-2.624-1.193-5.432-2.945-7.252-5.258c-1.813-2.3-2.72-5.943-5.729-7.055
			c-3.018-1.109-6.28,1.105-8.689,2.723c-5.333,3.58-9.148,9.104-10.438,15.428c-2.761,13.578,6.502,26.926,20.693,29.811
			c5.41,1.102,11.914,0.473,16.906-1.873c6.371-2.998,12.399-10.018,14.043-17.432c0.459-2.068,0.577-4.166,0.271-6.215
			C295.584,282.91,284.134,286.031,277.316,282.941z"/>
		<path fill="#2F0E2B" d="M258.826,280.801c2.773-0.229,5.56-0.262,6.975-3.301c0.816-1.75,0.479-3.377-0.888-4.783
			c-0.237-0.248-0.475-0.443-0.703-0.6c-1.833-1.234-4.173-0.617-6.182-0.244c-2.397,0.445-4.376,0.232-6.771,0.195
			c-5.098-0.08-10.911,0.561-15.413,3.074c-6.82,3.809-9.239,12.672-6.36,19.219c2.104,4.793,5.883,8.672,9.867,11.973
			c1.715,1.422,5.382,3.963,7.675,3.707c3.294-0.367,4.816-4.164,2.727-6.461c2.254,1.051,4.702,1.6,7.159,1.152
			c2.013-0.365,4.104-2.14,4.021-4.303c-0.042-1.097-1.576-2.855-1.642-3.938c2.014,0.731,3.85,1.278,5.677,0.366
			c1.099-0.549,2.26-1.672,2.633-2.348C271.015,288.322,257.843,286.58,258.826,280.801z"/>
		
			<linearGradient id="SVGID_17_" gradientUnits="userSpaceOnUse" x1="287.5862" y1="77.1699" x2="290.1498" y2="54.2873" gradientTransform="matrix(1 0 0 -1 -41.6001 348.0098)">
			<stop  offset="0" style="stop-color:#FFFFFF"/>
			<stop  offset="1" style="stop-color:#000000"/>
		</linearGradient>
		<path opacity="0.19" fill="url(#SVGID_17_)" enable-background="new    " d="M258.826,280.801c2.773-0.229,5.56-0.262,6.975-3.301
			c0.816-1.75,0.479-3.377-0.888-4.783c-0.237-0.248-0.475-0.443-0.703-0.6c-1.833-1.234-4.173-0.617-6.182-0.244
			c-2.397,0.445-4.376,0.232-6.771,0.195c-5.098-0.08-10.911,0.561-15.413,3.074c-6.82,3.809-9.239,12.672-6.36,19.219
			c2.104,4.793,5.883,8.672,9.867,11.973c1.715,1.422,5.382,3.963,7.675,3.707c3.294-0.367,4.816-4.164,2.727-6.461
			c2.254,1.051,4.702,1.6,7.159,1.152c2.013-0.365,4.104-2.14,4.021-4.303c-0.042-1.097-1.576-2.855-1.642-3.938
			c2.014,0.731,3.85,1.278,5.677,0.366c1.099-0.549,2.26-1.672,2.633-2.348C271.015,288.322,257.843,286.58,258.826,280.801z"/>
		<path fill="#2F0E2B" d="M303.054,295.73c-1.802-1.894-2.854-3.379-5.456-4.047c-2.5-0.644-5.115-0.642-7.654-1.041
			c-3.055-0.486-9.131-5.349-11.78-2.047c-2.104,2.62-1.063,5.678,0.665,8.182c-2.778,0.738-5.711,0.801-7.259,3.707
			c-1.453,2.731-0.138,5.42,2.535,6.69c-2.244,2.521-2.511,4.986,0.561,7.056c1.517,1.022,3.372,0.662,5.024,1.188
			c-0.604,1.517-0.555,3.209,1.372,3.914c3.109,1.138,7.266,0.244,10.479-0.354c6.015-1.125,11.704-4.213,14.309-9.955
			c1.318-2.898,1.144-6.053,0.007-8.992C305.241,298.439,304.269,297.006,303.054,295.73z"/>
		
			<linearGradient id="SVGID_18_" gradientUnits="userSpaceOnUse" x1="330.8176" y1="65.314" x2="330.4514" y2="42.9812" gradientTransform="matrix(1 0 0 -1 -41.6001 348.0098)">
			<stop  offset="0" style="stop-color:#FFFFFF"/>
			<stop  offset="1" style="stop-color:#000000"/>
		</linearGradient>
		<path opacity="0.19" fill="url(#SVGID_18_)" enable-background="new    " d="M303.054,295.73
			c-1.802-1.894-2.854-3.379-5.456-4.047c-2.5-0.644-5.115-0.642-7.654-1.041c-3.055-0.486-9.131-5.349-11.78-2.047
			c-2.104,2.62-1.063,5.678,0.665,8.182c-2.778,0.738-5.711,0.801-7.259,3.707c-1.453,2.731-0.138,5.42,2.535,6.69
			c-2.244,2.521-2.511,4.986,0.561,7.056c1.517,1.022,3.372,0.662,5.024,1.188c-0.604,1.517-0.555,3.209,1.372,3.914
			c3.109,1.138,7.266,0.244,10.479-0.354c6.015-1.125,11.704-4.213,14.309-9.955c1.318-2.898,1.144-6.053,0.007-8.992
			C305.241,298.439,304.269,297.006,303.054,295.73z"/>
		<path fill="#2F0E2B" d="M279.008,241.816c-2.024,8.115,10.941,11.914,14.429,4.608
			C286.701,247.062,278.919,242.209,279.008,241.816z"/>
		
			<radialGradient id="SVGID_19_" cx="316.1282" cy="164.9648" r="22.8245" gradientTransform="matrix(1 0 0 -1 -41.6001 348.0098)" gradientUnits="userSpaceOnUse">
			<stop  offset="0" style="stop-color:#FFFFFF"/>
			<stop  offset="0.2415" style="stop-color:#FBFCFC"/>
			<stop  offset="0.3688" style="stop-color:#F6F8F8"/>
			<stop  offset="1" style="stop-color:#D7E0E0"/>
		</radialGradient>
		<path fill="url(#SVGID_19_)" d="M264.913,162.917c-12.419,0-22.489,10.367-22.489,23.153c0,12.787,10.07,23.151,22.489,23.151
			c12.424,0,22.489-10.364,22.489-23.151C287.403,173.284,277.337,162.917,264.913,162.917z"/>
		<path opacity="0.7" fill="#FFFFFF" enable-background="new    " d="M247.488,181.216c1.761-9.555,8.568-14.756,17.178-17.739
			l0.284-0.56c-0.012,0-0.024,0-0.036,0c-12.419,0-22.489,10.367-22.489,23.153c0,12.787,10.07,23.151,22.489,23.151
			c2.676,0,5.803-0.12,8.06-1.731c-7.469,0.009-11.441-0.575-15.908-3.044C249.551,200.291,245.808,190.324,247.488,181.216z"/>
		
			<radialGradient id="SVGID_20_" cx="376.5051" cy="145.728" r="22.8236" gradientTransform="matrix(1 0 0 -1 -41.6001 348.0098)" gradientUnits="userSpaceOnUse">
			<stop  offset="0" style="stop-color:#FFFFFF"/>
			<stop  offset="0.3301" style="stop-color:#FBFCFC"/>
			<stop  offset="0.6287" style="stop-color:#F0F4F4"/>
			<stop  offset="0.9143" style="stop-color:#DEE5E5"/>
			<stop  offset="1" style="stop-color:#D7E0E0"/>
		</radialGradient>
		<ellipse fill="url(#SVGID_20_)" cx="337.717" cy="207.558" rx="22.488" ry="23.152"/>
		<path opacity="0.7" fill="#FFFFFF" enable-background="new    " d="M319.698,207.062c0-11.139,7.646-20.438,17.826-22.649
			c-12.335,0.106-22.297,10.427-22.297,23.146c0,12.787,10.066,23.151,22.489,23.151c1.599,0,3.16-0.175,4.667-0.502
			c-0.067,0-0.13,0.007-0.195,0.007C329.767,230.215,319.698,219.849,319.698,207.062z"/>
		<path fill="#907681" d="M395.318,128.198c-5.264,0.495-11.44,1.023-16.252,3.395c-10.478,5.161-6.317,13.226,0.701,21.077
			c7.393,8.273,12.086,21.831,12.967,33.063c0.503,6.387-0.563,17.015,4.029,22.105c1.263,1.4,2.595,2.188,3.965,2.495
			c26.742,5.987,31.542-54.484,22.166-69.045C417.466,132.854,405.281,127.262,395.318,128.198z"/>
		<path fill="#F8E8DB" d="M400.775,146.803c-9.507,0.071-24.572,3.366-23.278,15.568c0.39,3.7,2.899,8.334,4.43,11.81
			c1.911,4.349,3.896,8.847,5.461,13.406c1.156,3.372,1.779,6.882,2.724,10.312c0.568,2.064,1.021,5.876,2.504,7.474
			c2.66,2.864,5.74,2.049,8.448,0.547c10.13-5.619,11.931-12.062,14.357-17.813c3.285-7.776,4.295-18.529,2.839-26.692
			C416.396,150.945,411.304,146.728,400.775,146.803z"/>
		<path fill="#2F0E2B" d="M406.944,157.603c-2.021-1.454-4.65-2.188-7.602-2.08c-4.715,0.174-10.863,3.177-12.841,7.686
			c-2.033,4.65,2.601,10.529,3.767,15.122c0.677,2.677,1.188,5.299,2.321,7.847c2.283,5.135,6.081,7.506,10.556,2.854
			c5.456-5.674,8.159-15.255,7.952-22.948C410.995,162.298,409.431,159.401,406.944,157.603z"/>
		<circle fill="#046EA3" cx="333.559" cy="198.985" r="8.528"/>
		<circle fill="#00C7F7" cx="333.559" cy="198.984" r="7.298"/>
		<circle cx="333.559" cy="198.984" r="5.539"/>
		<circle fill="#046EA3" cx="274.3" cy="181.225" r="8.528"/>
		<circle fill="#00C7F7" cx="274.3" cy="181.224" r="7.298"/>
		<circle cx="274.3" cy="181.224" r="5.54"/>
		<circle opacity="0.82" fill="#FFFFFF" enable-background="new    " cx="270.581" cy="181.042" r="3.278"/>
		<path opacity="0.82" fill="#FFFFFF" enable-background="new    " d="M329.98,194.941c-1.807,0-3.276,1.47-3.276,3.278
			c0,1.813,1.471,3.276,3.276,3.276c1.81,0,3.278-1.465,3.278-3.276C333.259,196.411,331.789,194.941,329.98,194.941z"/>
		
			<radialGradient id="SVGID_21_" cx="392.3186" cy="2.3604" r="22.6021" gradientTransform="matrix(0.9299 0.3677 0.1794 -0.4537 -72.1392 84.3936)" gradientUnits="userSpaceOnUse">
			<stop  offset="0" style="stop-color:#FFFFFF"/>
			<stop  offset="0.1598" style="stop-color:#FCFCFC"/>
			<stop  offset="0.2899" style="stop-color:#F2F2F2"/>
			<stop  offset="0.4096" style="stop-color:#E1E1E1"/>
			<stop  offset="0.5231" style="stop-color:#C9C9C9"/>
			<stop  offset="0.6323" style="stop-color:#A9A9A9"/>
			<stop  offset="0.7381" style="stop-color:#838383"/>
			<stop  offset="0.8413" style="stop-color:#565656"/>
			<stop  offset="0.9399" style="stop-color:#232323"/>
			<stop  offset="1" style="stop-color:#000000"/>
		</radialGradient>
		<path opacity="0.37" fill="url(#SVGID_21_)" enable-background="new    " d="M296.577,216.805
			c-6.642-2.064-22.277-3.876-25.156,4.735c12.329-0.178,30.63,4.779,38.695,14.715
			C312.677,227.038,304.059,219.127,296.577,216.805z"/>
		
			<linearGradient id="SVGID_22_" gradientUnits="userSpaceOnUse" x1="408.7874" y1="16.4907" x2="370.9434" y2="-12.218" gradientTransform="matrix(1 0 0 -1 -41.6001 348.0098)">
			<stop  offset="0" style="stop-color:#7C5563"/>
			<stop  offset="0.3052" style="stop-color:#866673"/>
			<stop  offset="0.6507" style="stop-color:#8E727D"/>
			<stop  offset="1" style="stop-color:#907681"/>
		</linearGradient>
		<path fill="url(#SVGID_22_)" d="M333.444,322.961c-18.052,15.729-11.977,34.412-11.977,34.412s21.609,17.107,53.949,2.059
			C381.788,340.563,350.525,319.535,333.444,322.961z"/>
		<path fill="#2F0E2B" d="M337.848,310.764c0.036,0.291,0.149,0.82,0.145,1.115c-0.025,4.195-2.502,7.967-4.548,11.082
			c17.081-3.426,48.345,17.602,41.974,36.471c5.59-4.059,10.291-9.465,13.635-15.17c1.414-2.41,2.496-4.703,3.292-6.92
			C390.351,320.066,356.659,298.313,337.848,310.764z"/>
		<path fill="#755D68" d="M297.938,284.623c-1.068,0.771-0.874,0.582-2.281,1.262c0.024,0.813,0.444,1.996,0.72,2.758
			c0.263,0.721,0.34,1.576,0.396,2.385c1.608-0.262,4.088-1.948,5.551-2.713c3.53-1.83,6.364-4.459,6.563-8.633
			c0.042-0.844,0.106-4.318,0.06-4.996C305.818,278.346,302.254,281.523,297.938,284.623z"/>
		<g opacity="0.19">
			
				<linearGradient id="SVGID_23_" gradientUnits="userSpaceOnUse" x1="395.8704" y1="57.0884" x2="380.4738" y2="-6.3828" gradientTransform="matrix(1 0 0 -1 -41.6001 348.0098)">
				<stop  offset="0" style="stop-color:#000000"/>
				<stop  offset="1" style="stop-color:#FFFFFF"/>
			</linearGradient>
			<path fill="url(#SVGID_23_)" d="M358.72,289.254c-5.415-1.609-10.8-3.504-16.261-2.021c-7.311,1.982-14.677,4.242-4.421,8.068
				c8.435,3.143,6.693,11.967,0.656,21.414c-8.495,13.281-18.753,14.855-17.228,40.658c1.603-2.486,9.232-11.162,11.683-13.135
				c12.172-9.816,22.302-11.805,30.035-20.025c3.142-3.336,6.229-7.52,7.14-12.59C372.288,300.662,370.09,292.635,358.72,289.254z"
				/>
		</g>
		
			<linearGradient id="SVGID_24_" gradientUnits="userSpaceOnUse" x1="301.801" y1="19.0498" x2="300.9651" y2="6.9374" gradientTransform="matrix(1 0 0 -1 -41.6001 348.0098)">
			<stop  offset="0" style="stop-color:#FFFFFF"/>
			<stop  offset="1" style="stop-color:#000000"/>
		</linearGradient>
		<path opacity="0.19" fill="url(#SVGID_24_)" enable-background="new    " d="M272.192,326.949
			c-2.437,0.074-4.592,1.314-6.082,3.232c-1.615-2.017-3.962-3.257-6.544-3.177c-2.27,0.068-4.298,1.152-5.77,2.851
			c-1.602-2.498-4.225-4.094-7.143-4.002c-4.682,0.145-8.341,4.559-8.182,9.867c0.161,5.307,4.089,9.495,8.768,9.352
			c2.273-0.068,4.304-1.154,5.772-2.852c1.603,2.5,4.224,4.094,7.141,4.004c2.438-0.074,4.595-1.316,6.083-3.232
			c1.616,2.014,3.962,3.258,6.541,3.18c4.683-0.145,8.344-4.563,8.18-9.869C280.797,330.992,276.87,326.809,272.192,326.949z"/>
		<path fill="#B73533" d="M283.551,279.164c-1.452,0.885-1.773,3.016-0.716,4.76c1.062,1.746,3.102,2.443,4.557,1.555
			c1.457-0.883,1.777-3.016,0.718-4.758C287.049,278.977,285.009,278.279,283.551,279.164z"/>
		<path fill="#542424" d="M296.272,274.73c-0.858-0.313-2.138,0.406-2.882,0.764c-0.957,0.459-1.819,1.01-2.691,1.613
			c-0.577,0.404-1.154,0.809-1.722,1.229c-0.981,0.731-1.951,1.556-2.682,2.545c-0.271,0.367-1.214,1.209-0.907,1.714
			c0.386,0.629,1.51-0.203,1.884-0.449c0.806-0.525,1.586-1.064,2.446-1.5c1.71-0.875,3.566-1.562,5.43-2.025
			c0.297-0.072,0.914-0.021,1.363-0.102c0.2-0.039,0.37-0.101,0.461-0.213c0.229-0.269-0.07-0.92-0.083-1.242
			C296.862,276.4,297.109,275.029,296.272,274.73z"/>
		<path fill="#B73533" d="M296.136,275.377c-0.709-0.1-1.228,1.219-1.321,1.732c-0.038,0.211-0.028,0.521,0.034,0.774
			c0.022,0.093,0.052,0.179,0.091,0.248c0.213,0.396,0.661,0.127,1.014,0.017c0.119-0.035,0.464-0.041,0.544-0.113
			c0.22-0.205-0.026-1.072-0.019-1.371C296.486,276.314,296.656,275.451,296.136,275.377z"/>
		<path opacity="0.19" fill="#FFFFFF" enable-background="new    " d="M282.313,272.084c-2.366-1.299-4.741-1.604-7.4-0.93
			c-2.823,0.715-5.271,2.705-4.704,5.803c0.504,2.764,3.623,4.703,6.093,5.723c1.14,0.469,3.905,1.445,5.007,0.346
			c0.277-0.276,0.193-0.692,0.062-1.092c-0.317-0.938-1.14-1.395-1.25-2.447c-0.186-1.723,1.063-2.854,2.536-3.467
			c1.161-0.481,2.943-0.045,2.229-1.817C284.449,273.129,283.281,272.613,282.313,272.084z"/>
	</g>
</g>
<g>
	<g>
		<g>
			<path fill="#593E4D" d="M-174.969,85.253c0,8.225-2.371,15.459-6.905,21.854c-6.4,9.029-14.992,11.891-14.853,11.986
				c5.175,3.516,7.137,5.617,11.846,11.566c1.25,1.447,6.375,5.145,8.473,8.213c0.564,0.824,0.432,3.268,0.343,3.73
				c-0.226,1.176-5.624,5.805-13.384,8.979c-10.234,4.189-14.48,4.262-14.48,4.262s-1.386-1.824-2.506-3.424
				c-1.522-2.17-3.566-5.186-6.139-9.045c-2.059-3.396-5.564-9.85-9.541-17.895l-0.36,0.314l0.044,23.883
				c-4.596,0.928-7.656,1.16-20.338,1.428c-9.365,0.199-17.404-1.428-17.404-1.428c-0.007-0.162,0.033-1.707-0.078-4.172
				c-0.379-8.404-1.356-27.982-2-44.029c-0.4-13.184-0.639-31.506-2.066-54.834c12.289-1.297,22.826-1.879,32.973-1.879
				C-193.763,44.763-174.969,58.261-174.969,85.253z M-205.818,99.734c0-4.246-1.791-7.285-5.363-9.117
				c-2.639-1.342-5.941-1.922-9.922-1.744l-0.402,22.928c3.709,0,7.017-0.826,9.922-2.48
				C-207.74,107.175-205.818,103.98-205.818,99.734z"/>
		</g>
		<g>
			<g>
				<path fill="#907681" d="M-174.969,81.095c0,8.225-2.371,15.461-6.905,21.855c-6.4,9.027-14.992,11.891-14.853,11.984
					c5.175,3.516,7.137,5.619,11.846,11.566c1.89,2.186,7.242,10.131,8.481,12.355c0.177,0.316-5.29,5.393-13.05,8.568
					c-10.234,4.189-14.48,4.262-14.48,4.262s-1.386-1.824-2.506-3.424c-1.522-2.172-3.566-5.188-6.139-9.047
					c-2.059-3.395-5.073-9.117-9.052-17.16h-0.132l-0.674,23.463c-4.596,0.93-7.656,1.16-20.338,1.428
					c-9.365,0.201-17.404-1.428-17.404-1.428c-0.435-1.592-2.078-27.607-2.902-48.363c-0.402-13.184-0.493-31.277-1.924-54.605
					c12.291-1.297,23.508-1.943,33.654-1.943C-193.763,40.607-174.969,54.103-174.969,81.095z M-205.402,95.578
					c0-4.248-1.789-7.285-5.365-9.119c-2.637-1.34-5.941-1.92-9.92-1.742l-0.402,22.928c3.707,0,7.016-0.826,9.922-2.482
					C-207.324,103.017-205.402,99.824-205.402,95.578z"/>
			</g>
		</g>
		<g opacity="0.5">
			<path fill="#907681" d="M-231.345,44.763c36.517,0,55.293,12.742,56.332,38.223c0.027-0.625,0.045-1.254,0.045-1.891
				c0-26.992-18.795-40.488-56.377-40.488c-10.146,0-21.363,0.646-33.654,1.943c0.088,1.396,0.17,2.771,0.252,4.131
				C-252.558,45.404-241.424,44.763-231.345,44.763z"/>
		</g>
		<circle opacity="0.62" fill="#907681" cx="-239.658" cy="63.351" r="8.098"/>
		<circle opacity="0.62" fill="#907681" cx="-246.137" cy="100.062" r="5.399"/>
		<circle opacity="0.62" fill="#907681" cx="-196.198" cy="73.339" r="6.208"/>
		<circle opacity="0.62" fill="#907681" cx="-189.989" cy="96.283" r="3.509"/>
		<circle opacity="0.62" fill="#907681" cx="-211.044" cy="122.199" r="3.51"/>
		<circle opacity="0.62" fill="#907681" cx="-189.988" cy="136.236" r="5.689"/>
		<circle opacity="0.62" fill="#907681" cx="-234.26" cy="136.236" r="5.398"/>
	</g>
	<g>
		<linearGradient id="SVGID_25_" gradientUnits="userSpaceOnUse" x1="-9.4353" y1="187.4263" x2="43.4368" y2="187.4263">
			<stop  offset="0" style="stop-color:#907681"/>
			<stop  offset="0.2916" style="stop-color:#8D717C"/>
			<stop  offset="0.6543" style="stop-color:#83616E"/>
			<stop  offset="1" style="stop-color:#764C5A"/>
		</linearGradient>
		<path fill="url(#SVGID_25_)" d="M30.505,170.05c-19.899-7.291-36.884,4.998-39.94,8.928c1.115,1.701,2.063,3.424,2.277,5.186
			c16.551-10.953,47.063,7.707,48.816,22.906c3.225-8.975,1.92-16.139-2.746-26.342C37.158,176.884,33.685,172.953,30.505,170.05z"
			/>
		<path fill="#2F0E2B" d="M4.994,161.248c-2.324,0.268-5.607,0.576-8.791,1.305c-4.373,2.496-7.917,6.668-9.508,10.053
			c0.785,2.109,2.458,4.223,3.869,6.373c3.057-3.93,20.041-16.219,39.94-8.928C23.648,163.791,14.164,160.189,4.994,161.248z"/>
		<path fill="#907681" d="M-13.146,167.986c-0.826,1.547-0.728,3.082-0.158,4.619c1.591-3.385,5.135-7.557,9.508-10.053
			C-7.761,163.458-11.562,165.021-13.146,167.986z"/>
		<path fill="#907681" d="M-16.76,146.64c-2.543-11.637-17.98-15.105-28.141-16.436c-19.581-2.561-39.122,10.557-46.299,27.92
			c-4.641,11.223-8.379,28.014-3.242,39.709c6.279,14.301,25.666,10.564,38.465,12.367c15.757,2.221,40.924,0.646,49.012-15.422
			c3.75-7.457-0.353-13.578-3.338-20.49C-14.277,165.089-14.67,156.205-16.76,146.64z"/>
		<linearGradient id="SVGID_26_" gradientUnits="userSpaceOnUse" x1="-78.6042" y1="135.9531" x2="-93.2566" y2="165.7465">
			<stop  offset="0" style="stop-color:#7C5563"/>
			<stop  offset="0.3052" style="stop-color:#866673"/>
			<stop  offset="0.6507" style="stop-color:#8E727D"/>
			<stop  offset="1" style="stop-color:#907681"/>
		</linearGradient>
		<path fill="url(#SVGID_26_)" d="M-75.215,153.291c-0.613-2.336-2.416-2.895-3.656-4.709c-1.471-2.15,3.003-9.764,3.808-9.086
			c-12.325-10.4-26.769,8.225-27.327,20.297c-0.154,3.35,0,7.994,3.128,10.053c4.755,3.131,11.328,1.693,15.595-1.537
			c3.189-2.416,6.268-5.693,7.826-9.424c0.699-1.674,1.076-3.459,0.711-5.238C-75.156,153.529-75.185,153.41-75.215,153.291z"/>
		<linearGradient id="SVGID_27_" gradientUnits="userSpaceOnUse" x1="-100.2888" y1="150.7534" x2="-90.8652" y2="152.4361">
			<stop  offset="0" style="stop-color:#FFFFFF"/>
			<stop  offset="1" style="stop-color:#000000"/>
		</linearGradient>
		<path opacity="0.19" fill="url(#SVGID_27_)" d="M-102.39,159.796c0.037,3.893,1.41,11.598,6.385,6.209
			c3.71-4.02-0.604-6.971,2.746-16.297c0.979-2.729,2.953-6.195,5.546-8.621c1.771-1.66,3.56-2.754,6.057-3.848
			C-91.927,134.027-102.462,151.933-102.39,159.796z"/>
		<path fill="#826773" d="M-80.115,139.244c-1.998,1.254-3.184,4.418-3.162,6.674c0.021,2.342,2.082,7.883,4.973,7.777
			c0.463-0.018,0.852-0.143,1.176-0.342c0.975-0.6,1.367-1.879,1.522-2.965c0.278-1.918,0.808-3.723,1.133-5.639
			c0.353-2.086,0.503-4.568,2.343-5.943C-74.498,138.828-77.998,137.912-80.115,139.244z"/>
		
			<radialGradient id="SVGID_28_" cx="-52.3723" cy="171.1689" r="41.325" gradientTransform="matrix(1 0.0096 -0.0071 0.7435 1.2152 44.3983)" gradientUnits="userSpaceOnUse">
			<stop  offset="0" style="stop-color:#5E3D48"/>
			<stop  offset="0.4677" style="stop-color:#603F4A"/>
			<stop  offset="0.6595" style="stop-color:#664651"/>
			<stop  offset="0.8006" style="stop-color:#71525D"/>
			<stop  offset="0.9162" style="stop-color:#80646F"/>
			<stop  offset="1" style="stop-color:#907681"/>
		</radialGradient>
		<path fill="url(#SVGID_28_)" d="M-18.893,155.351c-0.134-0.098-0.271-0.191-0.409-0.277c-5.463-3.516-12.353,0.533-16.673,4.023
			c-3.13,2.525-6.052,5.924-10.123,6.848c-9.52,2.16-18.571-3.07-28.031-1.561c-8.622,1.377-23.581,11.988-20.179,19.104
			c9.375,19.6,41.094,21.197,55.395,17.469c9.21-2.4,21.219-7.145,26.418-15.34C-9.23,180.47-12.974,159.63-18.893,155.351z"/>
		<linearGradient id="SVGID_29_" gradientUnits="userSpaceOnUse" x1="-75.4446" y1="158.2007" x2="-17.5325" y2="158.2007">
			<stop  offset="0" style="stop-color:#F8E8DB"/>
			<stop  offset="0.5866" style="stop-color:#F8E7D9"/>
			<stop  offset="0.8268" style="stop-color:#F8E3D2"/>
			<stop  offset="1" style="stop-color:#F8DDC6"/>
		</linearGradient>
		<path fill="url(#SVGID_29_)" d="M-45.605,129.968c-9.775-1.277-25.488-0.383-28.934,11.074c-2.066,6.869-0.15,16.307,1.319,23.156
			c1.63,7.588,3.808,16.262,8.103,22.674c4.041-4.877,7.385-10.518,12.705-14.441c5.07-3.738,11.291-5.145,16.547-8.398
			c5.721-3.547,17.914-10.572,18.32-18.176C-16.953,134.714-37.839,130.986-45.605,129.968z"/>
		
			<radialGradient id="SVGID_30_" cx="-53.2229" cy="150.9321" r="26.1211" gradientTransform="matrix(0.9971 0.0759 -0.0684 0.8985 10.1691 19.3607)" gradientUnits="userSpaceOnUse">
			<stop  offset="0" style="stop-color:#FC8856"/>
			<stop  offset="0.2582" style="stop-color:#FC8A59"/>
			<stop  offset="0.4272" style="stop-color:#FC9061"/>
			<stop  offset="0.5707" style="stop-color:#FB9B70"/>
			<stop  offset="0.6998" style="stop-color:#FBAA86"/>
			<stop  offset="0.8194" style="stop-color:#FABEA1"/>
			<stop  offset="0.9303" style="stop-color:#F9D6C2"/>
			<stop  offset="1" style="stop-color:#F8E8DB"/>
		</radialGradient>
		<path opacity="0.34" fill="url(#SVGID_30_)" d="M-48.572,124.365c-4.045-0.578-8.188-0.684-12.258-0.348
			c-2.543,0.207-7.088,1.391-8.7,3.537c-6.42,8.539-8.122,24.262,2.351,30.543c4.734,2.84,10.336,3.797,15.785,4.027
			c2.92,0.121,5.938,0.779,8.848,0.246c1.488-0.273,2.811-0.859,4.01-1.775c1.662-1.27,2.484-1.055,4.546-1.541
			c4.801-1.133,10.037-2.703,13.229-6.723c2.074-2.607,2.978-5.781,3.135-9.078C-17.006,130.06-40.01,125.591-48.572,124.365z"/>
		<linearGradient id="SVGID_31_" gradientUnits="userSpaceOnUse" x1="-16.7473" y1="151.5063" x2="-40.1913" y2="181.7879">
			<stop  offset="0" style="stop-color:#7C5563"/>
			<stop  offset="0.3052" style="stop-color:#866673"/>
			<stop  offset="0.6507" style="stop-color:#8E727D"/>
			<stop  offset="1" style="stop-color:#907681"/>
		</linearGradient>
		<path fill="url(#SVGID_31_)" d="M-18.236,149.576c-9.49-8.213-14.768,5.967-21.069,9.914c-2.737,1.717-6.267,3.256-8.272,5.896
			c-2.666,3.518-4.201,13.264-1.279,16.977c5.041,6.404,12.011,5.91,18.754,3.545c5.289-1.857,10.898-4.801,14.18-9.566
			c4.502-6.549,4.375-19.467-1.262-25.734C-17.515,150.24-17.867,149.896-18.236,149.576z"/>
		<path fill="#F8E8DB" d="M40.811,44.197C33.323,31.271,29.973,16.414,1.541,6.935c-7.23-2.408-16.879-7.66-24.477-8.662
			c-11.068-1.457-22.525-0.277-33.393,2.865C-70.146,5.13-82.595,13.062-93.619,22.111c-9.026,7.402-18.623,14.119-27.242,22.014
			c-5.704,5.219-17.697,13.861-18.689,21.916c-1.104,8.934,5.413,19.619,9.678,26.959c9.25,15.924,22.995,29.648,38.397,39.641
			c16.7,10.838,36.13,16.625,55.833,18.689c22.139,2.32,45.635,4.141,67.035-3.416c8.471-2.994,17.691-5.861,24.932-11.365
			c10.67-8.107,5.336-18.674,2.531-28.563C52.856,86.832,52.16,63.791,40.811,44.197z"/>
		
			<radialGradient id="SVGID_32_" cx="-2.5164" cy="134.1235" r="31.8768" gradientTransform="matrix(1 0 0 0.5286 0 63.2264)" gradientUnits="userSpaceOnUse">
			<stop  offset="0" style="stop-color:#FCB292"/>
			<stop  offset="0.2166" style="stop-color:#FBB99B"/>
			<stop  offset="0.5777" style="stop-color:#FACCB5"/>
			<stop  offset="1" style="stop-color:#F8E8DB"/>
		</radialGradient>
		<ellipse opacity="0.34" fill="url(#SVGID_32_)" cx="-2.517" cy="134.124" rx="31.867" ry="16.851"/>
		
			<radialGradient id="SVGID_33_" cx="-99.7024" cy="101.1563" r="31.8829" gradientTransform="matrix(0.8141 0.5807 -0.2929 0.4105 11.0891 117.5283)" gradientUnits="userSpaceOnUse">
			<stop  offset="0" style="stop-color:#FCB292"/>
			<stop  offset="0.2166" style="stop-color:#FBB99B"/>
			<stop  offset="0.5777" style="stop-color:#FACCB5"/>
			<stop  offset="1" style="stop-color:#F8E8DB"/>
		</radialGradient>
		<path opacity="0.34" fill="url(#SVGID_33_)" d="M-89.927,87.101c-14.682-9.709-30.744-11.285-35.877-3.523
			s2.605,21.926,17.287,31.633c14.68,9.709,30.744,11.287,35.877,3.525S-75.246,96.81-89.927,87.101z"/>
		<path fill="#907681" d="M40.811,44.197C33.323,31.271,29.973,16.414,1.541,6.935c-7.23-2.408-16.879-7.66-24.477-8.662
			c-11.068-1.457-22.525-0.277-33.393,2.865C-70.146,5.13-82.595,13.062-93.619,22.111c-9.026,7.402-18.623,14.119-27.246,22.014
			c-5.361,4.908-21.348,13.963-18.891,22.842c0.041,0.154,8.145-7.846,8.762-8.439c3.396-3.262,7.727-6.875,11.639-10.082
			c7.807-6.402,15.932-12.412,24.178-18.234c9.096-6.42,18.545-12.516,29.08-16.305c7.663-2.758,16.605-5.314,24.617-2.576
			c3.734,1.277,6.271,4.369,10.123,5.297c4.421,1.066,8.195,3.068,12.5,4.535c4.172,1.424,8.326,2.676,12.559,3.936
			c11.887,3.531,27.185,4.207,33.531,16.713c3.268,6.434,5.91,12.438,8.035,19.373c2.047,6.672,4.963,12.646,8.381,18.703
			c2.87,5.09,5.213,10.465,7.146,15.975c1.526,4.344,2.419,8.871,3.956,13.203c1.447,4.076,5.345,13.104,5.973,22.789
			c6.137-2.475-0.479-19.402-1.663-23.592C53.057,87.107,52.16,63.789,40.811,44.197z"/>
		<path fill="#907681" d="M-65.689-14.651c-6.773-5.629-18.4-7.611-26.531-4.178c-14.037,5.928-40.559,52.242-18.159,61.164
			c1.146,0.457,2.504,0.545,4.118,0.154c5.863-1.42,10.361-9.672,13.896-14.061c6.215-7.723,16.353-15.244,25.83-17.584
			c8.994-2.223,16.019-6.018,10.969-14.967C-57.885-8.231-62.11-11.682-65.689-14.651z"/>
		<path fill="#F8E8DB" d="M-78.887-3.842C-86.5-9.124-92.295-8.586-98.84-1.907c-5.109,5.211-10.355,13.42-11.184,20.801
			c-0.635,5.627-0.704,14.039,2.365,18.957c0.091,0.146,0.182,0.287,0.273,0.422c5.529,8.123,13.146-2.232,17.985-5.844
			c3.399-2.537,7.073-4.818,10.62-7.029c6.043-3.768,15.277-7.926,11.439-16.736C-69.305,4.16-74.894-1.073-78.887-3.842z"/>
		<path fill="#907681" d="M17.767,12.777c-7.672-5.4-29.312-15.754-49.282-16.428C-36.514-3.819-53.443-2.36-58.86,2.152
			c5.621,2.318,6.103,2.33,18.037,9.619c3.703,2.264,5.554,5.451,6.276,6.996c6.938,14.871,4.008,33.035,0.232,47.518
			c-2.123,8.141-5.343,16.049-9.957,22.891c-5,7.41-11.635,13.568-20.273,17.404c4.601,3.207,10.736,3.736,15.859,5.916
			c5.602,2.383,10.972,6.375,17.148,7.109c0.664-3.699-2.063-4.76-2.957-8.301c-1.917-7.629-2.519-17.697-0.962-25.242
			c4.079-19.758,12.052-31.412,24.983-45.998c8.025-9.053,15.445-10.678,18.763-10.75c6.564-0.146,16.231,7.121,20.149,7.232
			c5.728,0.162,4.197-6.764,4.197-6.764S27.205,19.417,17.767,12.777z"/>
		<linearGradient id="SVGID_34_" gradientUnits="userSpaceOnUse" x1="-39.9543" y1="160.625" x2="-17.3464" y2="160.625">
			<stop  offset="0" style="stop-color:#FFFFFF"/>
			<stop  offset="1" style="stop-color:#000000"/>
		</linearGradient>
		<path opacity="0.19" fill="url(#SVGID_34_)" d="M-26.433,150.609c-1.443,1.689-1.33,3.832-1.673,5.871
			c-0.37,2.219-1.173,3.342-2.721,5.176c-1.387,1.645-2.899,3.162-4.74,4.217c-1.263,0.725-4.511,1.191-4.384,3.172
			c0.117,1.832,3.008,2.451,4.407,2.559c5.099,0.393,10.638-3.797,13.748-7.48c1.878-2.225,4.113-5.852,4.423-8.822
			c0.008-0.057,0.013-0.113,0.019-0.168C-17.086,151.769-23.959,147.716-26.433,150.609z"/>
		<path fill="#020204" d="M-43.107,98.712c-11.467-3.982-22.537-2.098-24.727,4.209c-2.192,6.307,5.332,14.648,16.798,18.627
			c11.465,3.984,22.536,2.098,24.728-4.209C-24.121,111.033-31.64,102.693-43.107,98.712z"/>
		<linearGradient id="SVGID_35_" gradientUnits="userSpaceOnUse" x1="-16.5022" y1="64.438" x2="14.2679" y2="120.1173">
			<stop  offset="0" style="stop-color:#57323F"/>
			<stop  offset="0.3963" style="stop-color:#5A3542"/>
			<stop  offset="0.7013" style="stop-color:#643D4A"/>
			<stop  offset="0.9756" style="stop-color:#744A58"/>
			<stop  offset="1" style="stop-color:#764C5A"/>
		</linearGradient>
		<path fill="url(#SVGID_35_)" d="M14.421,69.324c-6.929-7.029-16.594-10.064-26.135-6.137
			c-15.879,6.533-20.745,31.225-12.403,45.143c4.552,7.594,12.411,12.268,21.109,13.533c12.227,1.783,30.074,0.709,34.418-13.465
			c1.386-4.518,0.414-11.01-1.018-15.381C27.521,84.248,20.832,75.83,14.421,69.324z"/>
		<linearGradient id="SVGID_36_" gradientUnits="userSpaceOnUse" x1="-106.9626" y1="70.3618" x2="-43.2947" y2="70.3618">
			<stop  offset="0" style="stop-color:#764C5A"/>
			<stop  offset="0.1996" style="stop-color:#6D4452"/>
			<stop  offset="0.6493" style="stop-color:#5D3744"/>
			<stop  offset="1" style="stop-color:#57323F"/>
		</linearGradient>
		<path fill="url(#SVGID_36_)" d="M-58.23,43.425c-15.924-2.373-35.467,6.986-45.616,19.01c-6.005,7.111-2.429,16.262,3.118,22.641
			c3.512,4.039,9.367,7.863,14.193,10.119c5.65,2.641,12.081,3.072,18.198,1.746c11.089-2.402,21.147-10.572,23.675-21.803
			C-41.781,62.341-42.24,45.808-58.23,43.425z"/>
		<path fill="#2F0E2B" d="M-47.057,30.666c-7.462-5.555-14.917-3.658-22.216,1.037c3.861,0.678,6.723-0.98,11.699,0.4
			c7.037,1.955,12.105,6.426,12.977,2.289C-44.271,32.824-45.984,31.462-47.057,30.666z"/>
		<path fill="#2F0E2B" d="M16.455,54.033c-3.159-4.836-8.786-6.73-14.795-5.875c-1.365,0.193-3.602,0.582-4.392,2.156
			c-1.326,2.637,2.349,2.979,4.038,3.008c6.869,0.127,11.703,3.492,17.277,7.055c-0.19-0.963-0.223-2.178-0.561-3.137
			C17.61,56.056,17.08,54.988,16.455,54.033z"/>
		<path fill="#2F0E2B" d="M-83.283,5.785c-2.031-1.619-4.273-2.479-6.463-2.506c-2.702-0.033-5.324,1.197-7.377,3.818
			c-4.174,5.334-7.279,13.525-6.389,20.393c0.73,5.635,4.654,5.943,8.958,3.508c2.136-1.207,3.868-2.795,5.749-4.334
			c3.229-2.637,9.586-4.369,10.576-8.723C-77.263,13.718-80.041,8.375-83.283,5.785z"/>
		
			<ellipse transform="matrix(-0.0306 -0.9995 0.9995 -0.0306 -294.2104 125.3864)" fill="#2F0E2B" cx="-86.302" cy="205.365" rx="8.459" ry="7.46"/>
		<path fill="#2F0E2B" d="M-75.199,197.925c-4.115,0.123-7.338,4.012-7.196,8.682c0.144,4.668,3.597,8.354,7.714,8.227
			s7.339-4.012,7.199-8.684C-67.629,201.482-71.082,197.798-75.199,197.925z"/>
		
			<ellipse transform="matrix(-0.0305 -0.9995 0.9995 -0.0305 -272.0186 148.8288)" fill="#2F0E2B" cx="-63.833" cy="206.333" rx="8.46" ry="7.459"/>
		
			<ellipse transform="matrix(-0.1392 -0.9903 0.9903 -0.1392 -254.2262 193.1281)" fill="#2F0E2B" cx="-43.176" cy="207.056" rx="8.459" ry="7.459"/>
		<path fill="#2F0E2B" d="M-33.133,198.359c-4.077,0.574-6.855,4.791-6.205,9.414c0.65,4.629,4.486,7.912,8.563,7.338
			c4.08-0.572,6.86-4.789,6.209-9.416C-25.219,201.07-29.051,197.785-33.133,198.359z"/>
		<path fill="#2F0E2B" d="M-22.055,197.24c-4.077,0.572-6.858,4.789-6.208,9.414c0.652,4.627,4.49,7.912,8.564,7.34
			c4.08-0.574,6.86-4.791,6.209-9.418C-14.142,199.949-17.976,196.664-22.055,197.24z"/>
		<linearGradient id="SVGID_37_" gradientUnits="userSpaceOnUse" x1="-32.782" y1="198.2026" x2="-31.3121" y2="214.0037">
			<stop  offset="0" style="stop-color:#FFFFFF"/>
			<stop  offset="1" style="stop-color:#000000"/>
		</linearGradient>
		<path opacity="0.19" fill="url(#SVGID_37_)" d="M-22.055,197.24c-2.099,0.295-3.851,1.559-4.97,3.344
			c-1.615-1.656-3.82-2.545-6.107-2.225c-1.955,0.275-3.604,1.393-4.727,2.984c-1.639-1.932-4.02-3.012-6.494-2.664
			c-4.081,0.574-6.857,4.791-6.208,9.418c0.651,4.625,4.485,7.912,8.563,7.336c1.956-0.275,3.605-1.393,4.729-2.984
			c1.639,1.934,4.019,3.012,6.494,2.662c2.104-0.295,3.854-1.561,4.973-3.344c1.615,1.656,3.822,2.545,6.104,2.227
			c4.08-0.574,6.86-4.791,6.209-9.418C-14.142,199.949-17.976,196.664-22.055,197.24z"/>
		<linearGradient id="SVGID_38_" gradientUnits="userSpaceOnUse" x1="-88.2249" y1="168.938" x2="-42.1624" y2="168.938">
			<stop  offset="0" style="stop-color:#FFB700"/>
			<stop  offset="0.1209" style="stop-color:#FFB200"/>
			<stop  offset="0.2719" style="stop-color:#FFA200"/>
			<stop  offset="0.4388" style="stop-color:#FF8900"/>
			<stop  offset="0.6172" style="stop-color:#FF6500"/>
			<stop  offset="0.8047" style="stop-color:#FF3800"/>
			<stop  offset="0.9973" style="stop-color:#FF0100"/>
			<stop  offset="1" style="stop-color:#FF0000"/>
		</linearGradient>
		<path fill="url(#SVGID_38_)" d="M-60.795,147.304c-12.482-2.539-24.572,5.09-27.002,17.039
			c-2.429,11.947,5.721,23.691,18.207,26.229c12.479,2.539,24.568-5.088,26.998-17.037
			C-40.16,161.587-48.311,149.843-60.795,147.304z"/>
		<linearGradient id="SVGID_39_" gradientUnits="userSpaceOnUse" x1="-68.1912" y1="188.3779" x2="-61.5781" y2="152.7386">
			<stop  offset="0" style="stop-color:#D90000"/>
			<stop  offset="0.5687" style="stop-color:#EE6700;stop-opacity:0.4313"/>
			<stop  offset="1" style="stop-color:#FFB700;stop-opacity:0"/>
		</linearGradient>
		<path fill="url(#SVGID_39_)" d="M-59.047,158.453c-2.227-1.029-4.6-2.553-6.134-4.572c-1.526-2.008-2.276-5.207-4.827-6.164
			c-2.559-0.957-5.346,1.01-7.404,2.445c-4.553,3.178-7.833,8.055-8.964,13.617c-2.429,11.949,5.365,23.619,17.407,26.066
			c4.596,0.936,10.129,0.344,14.383-1.75c5.436-2.67,10.603-8.875,12.045-15.4c0.402-1.818,0.518-3.662,0.266-5.461
			C-43.519,158.318-53.273,161.128-59.047,158.453z"/>
		<linearGradient id="SVGID_40_" gradientUnits="userSpaceOnUse" x1="-68.8103" y1="189.104" x2="-62.1964" y2="153.46">
			<stop  offset="0" style="stop-color:#D90000"/>
			<stop  offset="0.5687" style="stop-color:#EE6700"/>
			<stop  offset="1" style="stop-color:#FFB700"/>
		</linearGradient>
		<path fill="url(#SVGID_40_)" d="M-59.547,159.207c-2.309-1.049-4.779-2.592-6.381-4.625c-1.596-2.023-2.393-5.23-5.041-6.207
			c-2.654-0.977-5.525,0.973-7.646,2.395c-4.691,3.15-8.05,8.012-9.183,13.574c-2.429,11.947,5.721,23.691,18.207,26.229
			c4.761,0.969,10.482,0.416,14.875-1.648c5.605-2.637,10.909-8.813,12.355-15.336c0.404-1.82,0.508-3.666,0.237-5.469
			C-43.474,159.179-53.549,161.925-59.547,159.207z"/>
		<path fill="#2F0E2B" d="M-75.815,157.324c2.441-0.201,4.892-0.23,6.137-2.904c0.718-1.539,0.421-2.971-0.781-4.209
			c-0.209-0.219-0.417-0.391-0.618-0.527c-1.613-1.086-3.672-0.543-5.438-0.215c-2.11,0.391-3.85,0.205-5.958,0.172
			c-4.484-0.07-9.6,0.492-13.561,2.705c-6.001,3.352-8.129,11.148-5.596,16.91c1.851,4.217,5.175,7.629,8.681,10.533
			c1.509,1.252,4.735,3.486,6.753,3.262c2.898-0.322,4.237-3.664,2.398-5.684c1.982,0.924,4.137,1.406,6.299,1.014
			c1.771-0.322,3.611-1.883,3.538-3.787c-0.037-0.963-1.387-2.512-1.444-3.463c1.771,0.645,3.387,1.125,4.994,0.322
			c0.967-0.482,1.988-1.471,2.316-2.066C-65.092,163.941-76.68,162.408-75.815,157.324z"/>
		<linearGradient id="SVGID_41_" gradientUnits="userSpaceOnUse" x1="-87.113" y1="148.5596" x2="-84.8573" y2="168.6928">
			<stop  offset="0" style="stop-color:#FFFFFF"/>
			<stop  offset="1" style="stop-color:#000000"/>
		</linearGradient>
		<path opacity="0.19" fill="url(#SVGID_41_)" d="M-75.815,157.324c2.441-0.201,4.892-0.23,6.137-2.904
			c0.718-1.539,0.421-2.971-0.781-4.209c-0.209-0.219-0.417-0.391-0.618-0.527c-1.613-1.086-3.672-0.543-5.438-0.215
			c-2.11,0.391-3.85,0.205-5.958,0.172c-4.484-0.07-9.6,0.492-13.561,2.705c-6.001,3.352-8.129,11.148-5.596,16.91
			c1.851,4.217,5.175,7.629,8.681,10.533c1.509,1.252,4.735,3.486,6.753,3.262c2.898-0.322,4.237-3.664,2.398-5.684
			c1.982,0.924,4.137,1.406,6.299,1.014c1.771-0.322,3.611-1.883,3.538-3.787c-0.037-0.963-1.387-2.512-1.444-3.463
			c1.771,0.645,3.387,1.125,4.994,0.322c0.967-0.482,1.988-1.471,2.316-2.066C-65.092,163.941-76.68,162.408-75.815,157.324z"/>
		<path fill="#2F0E2B" d="M-36.902,170.458c-1.585-1.664-2.51-2.973-4.801-3.561c-2.199-0.564-4.5-0.563-6.734-0.916
			c-2.688-0.428-8.033-4.705-10.365-1.801c-1.852,2.307-0.936,4.996,0.585,7.199c-2.444,0.65-5.024,0.705-6.386,3.262
			c-1.279,2.404-0.121,4.77,2.23,5.887c-1.975,2.219-2.209,4.389,0.492,6.207c1.335,0.9,2.967,0.584,4.422,1.047
			c-0.531,1.334-0.488,2.824,1.207,3.443c2.735,1,6.392,0.215,9.22-0.313c5.292-0.99,10.298-3.707,12.589-8.758
			c1.16-2.551,1.006-5.326,0.006-7.912C-34.976,172.843-35.834,171.582-36.902,170.458z"/>
		<linearGradient id="SVGID_42_" gradientUnits="userSpaceOnUse" x1="-49.0759" y1="158.9902" x2="-49.3981" y2="178.639">
			<stop  offset="0" style="stop-color:#FFFFFF"/>
			<stop  offset="1" style="stop-color:#000000"/>
		</linearGradient>
		<path opacity="0.19" fill="url(#SVGID_42_)" d="M-36.902,170.458c-1.585-1.664-2.51-2.973-4.801-3.561
			c-2.199-0.564-4.5-0.563-6.734-0.916c-2.688-0.428-8.033-4.705-10.365-1.801c-1.852,2.307-0.936,4.996,0.585,7.199
			c-2.444,0.65-5.024,0.705-6.386,3.262c-1.279,2.404-0.121,4.77,2.23,5.887c-1.975,2.219-2.209,4.389,0.492,6.207
			c1.335,0.9,2.967,0.584,4.422,1.047c-0.531,1.334-0.488,2.824,1.207,3.443c2.735,1,6.392,0.215,9.22-0.313
			c5.292-0.99,10.298-3.707,12.589-8.758c1.16-2.551,1.006-5.326,0.006-7.912C-34.976,172.843-35.834,171.582-36.902,170.458z"/>
		<path fill="#2F0E2B" d="M-58.058,123.023c-1.781,7.141,9.626,10.482,12.694,4.055C-51.29,127.638-58.136,123.369-58.058,123.023z"
			/>
		<radialGradient id="SVGID_43_" cx="-62.0002" cy="71.313" r="20.0812" gradientUnits="userSpaceOnUse">
			<stop  offset="0" style="stop-color:#FFFFFF"/>
			<stop  offset="0.2415" style="stop-color:#FBFCFC"/>
			<stop  offset="0.3688" style="stop-color:#F6F8F8"/>
			<stop  offset="1" style="stop-color:#D7E0E0"/>
		</radialGradient>
		<ellipse fill="url(#SVGID_43_)" cx="-70.46" cy="73.975" rx="19.787" ry="20.37"/>
		<path opacity="0.7" fill="#FFFFFF" d="M-85.791,69.705c1.549-8.406,7.539-12.982,15.113-15.607l0.25-0.492
			c-0.01,0-0.021,0-0.032,0c-10.927,0-19.787,9.121-19.787,20.371s8.86,20.369,19.787,20.369c2.354,0,5.105-0.105,7.091-1.523
			c-6.571,0.008-10.066-0.506-13.996-2.678C-83.976,86.488-87.269,77.718-85.791,69.705z"/>
		<radialGradient id="SVGID_44_" cx="-8.8782" cy="88.2402" r="20.0812" gradientUnits="userSpaceOnUse">
			<stop  offset="0" style="stop-color:#FFFFFF"/>
			<stop  offset="0.3301" style="stop-color:#FBFCFC"/>
			<stop  offset="0.6287" style="stop-color:#F0F4F4"/>
			<stop  offset="0.9143" style="stop-color:#DEE5E5"/>
			<stop  offset="1" style="stop-color:#D7E0E0"/>
		</radialGradient>
		<ellipse fill="url(#SVGID_44_)" cx="-6.404" cy="92.881" rx="19.787" ry="20.37"/>
		<path opacity="0.7" fill="#FFFFFF" d="M-22.258,92.445c0-9.801,6.727-17.982,15.684-19.928
			c-10.853,0.094-19.617,9.174-19.617,20.365c0,11.25,8.856,20.369,19.787,20.369c1.406,0,2.78-0.154,4.105-0.441
			c-0.059,0-0.114,0.006-0.172,0.006C-13.399,112.816-22.258,103.695-22.258,92.445z"/>
		<path fill="#907681" d="M44.276,23.058c-4.631,0.436-10.066,0.9-14.299,2.986c-9.219,4.541-5.559,11.637,0.616,18.545
			c6.505,7.279,10.634,19.207,11.409,29.09c0.442,5.619-0.496,14.971,3.545,19.449c1.111,1.232,2.283,1.926,3.488,2.195
			c23.529,5.268,27.752-47.938,19.503-60.748C63.762,27.154,53.042,22.234,44.276,23.058z"/>
		<path fill="#F8E8DB" d="M49.076,39.427c-8.364,0.063-21.619,2.961-20.48,13.697c0.342,3.256,2.551,7.332,3.896,10.391
			c1.682,3.826,3.429,7.783,4.805,11.795c1.018,2.967,1.566,6.055,2.396,9.072c0.5,1.816,0.898,5.17,2.203,6.576
			c2.34,2.52,5.05,1.803,7.433,0.48c8.913-4.943,10.497-10.611,12.632-15.672c2.892-6.842,3.779-16.303,2.498-23.484
			C62.82,43.072,58.34,39.361,49.076,39.427z"/>
		<path fill="#2F0E2B" d="M54.504,48.929c-1.779-1.279-4.092-1.926-6.688-1.83c-4.148,0.152-9.559,2.795-11.298,6.762
			c-1.789,4.092,2.288,9.264,3.313,13.305c0.596,2.355,1.045,4.662,2.043,6.904c2.01,4.518,5.35,6.604,9.287,2.51
			c4.8-4.992,7.179-13.422,6.996-20.191C58.07,53.06,56.692,50.511,54.504,48.929z"/>
		<circle fill="#046EA3" cx="-10.063" cy="85.338" r="7.503"/>
		<circle fill="#00C7F7" cx="-10.063" cy="85.338" r="6.421"/>
		<circle cx="-10.063" cy="85.337" r="4.873"/>
		<circle fill="#046EA3" cx="-62.201" cy="69.712" r="7.504"/>
		<circle fill="#00C7F7" cx="-62.201" cy="69.711" r="6.421"/>
		<circle cx="-62.201" cy="69.711" r="4.874"/>
		<circle opacity="0.82" fill="#FFFFFF" cx="-65.472" cy="69.551" r="2.884"/>
		<circle opacity="0.82" fill="#FFFFFF" cx="-13.211" cy="84.665" r="2.884"/>
		<linearGradient id="SVGID_45_" gradientUnits="userSpaceOnUse" x1="-6.1575" y1="1.7549" x2="-15.2804" y2="24.1476">
			<stop  offset="0" style="stop-color:#FFFFFF"/>
			<stop  offset="1" style="stop-color:#000000"/>
		</linearGradient>
		<path opacity="0.1" fill="url(#SVGID_45_)" d="M-7.036,2.453c-19.78-7.092-37.786-7.34-40.222-0.551
			c-2.433,6.789,11.627,18.041,31.404,25.133c19.777,7.09,37.783,7.338,40.214,0.549C26.795,20.794,12.737,9.544-7.036,2.453z"/>
		
			<radialGradient id="SVGID_46_" cx="-45.6516" cy="110.5029" r="19.8869" gradientTransform="matrix(0.9299 0.3677 -0.1794 0.4537 16.6263 77.1566)" gradientUnits="userSpaceOnUse">
			<stop  offset="0" style="stop-color:#FFFFFF"/>
			<stop  offset="0.1598" style="stop-color:#FCFCFC"/>
			<stop  offset="0.2899" style="stop-color:#F2F2F2"/>
			<stop  offset="0.4096" style="stop-color:#E1E1E1"/>
			<stop  offset="0.5231" style="stop-color:#C9C9C9"/>
			<stop  offset="0.6323" style="stop-color:#A9A9A9"/>
			<stop  offset="0.7381" style="stop-color:#838383"/>
			<stop  offset="0.8413" style="stop-color:#565656"/>
			<stop  offset="0.9399" style="stop-color:#232323"/>
			<stop  offset="1" style="stop-color:#000000"/>
		</radialGradient>
		<path opacity="0.37" fill="url(#SVGID_46_)" d="M-42.6,101.017c-5.843-1.816-19.601-3.41-22.134,4.166
			c10.848-0.156,26.949,4.205,34.047,12.947C-28.435,110.021-36.018,103.06-42.6,101.017z"/>
		<linearGradient id="SVGID_47_" gradientUnits="userSpaceOnUse" x1="19.5251" y1="201.9468" x2="-13.7718" y2="227.2061">
			<stop  offset="0" style="stop-color:#7C5563"/>
			<stop  offset="0.3052" style="stop-color:#866673"/>
			<stop  offset="0.6507" style="stop-color:#8E727D"/>
			<stop  offset="1" style="stop-color:#907681"/>
		</linearGradient>
		<path fill="url(#SVGID_47_)" d="M-10.164,194.417c-15.882,13.838-10.537,30.277-10.537,30.277s19.014,15.051,47.467,1.811
			C32.372,209.904,4.865,191.404-10.164,194.417z"/>
		<path fill="#2F0E2B" d="M-6.289,183.687c0.031,0.256,0.132,0.721,0.127,0.98c-0.023,3.691-2.201,7.01-4.002,9.75
			c15.029-3.014,42.536,15.486,36.93,32.088c4.918-3.57,9.055-8.326,11.996-13.346c1.244-2.121,2.196-4.139,2.896-6.09
			C39.905,191.871,10.263,172.732-6.289,183.687z"/>
		<path fill="#755D68" d="M-41.403,160.687c-0.94,0.678-0.769,0.512-2.007,1.109c0.021,0.715,0.391,1.756,0.633,2.426
			c0.23,0.635,0.299,1.387,0.349,2.1c1.415-0.23,3.597-1.715,4.884-2.387c3.105-1.611,5.6-3.924,5.773-7.596
			c0.037-0.742,0.095-3.801,0.053-4.396C-34.469,155.164-37.606,157.958-41.403,160.687z"/>
		<g opacity="0.19">
			<linearGradient id="SVGID_48_" gradientUnits="userSpaceOnUse" x1="8.1609" y1="166.2271" x2="-5.3857" y2="222.0721">
				<stop  offset="0" style="stop-color:#000000"/>
				<stop  offset="1" style="stop-color:#FFFFFF"/>
			</linearGradient>
			<path fill="url(#SVGID_48_)" d="M12.074,164.761c-4.764-1.416-9.502-3.084-14.307-1.779c-6.431,1.744-12.912,3.732-3.889,7.1
				c7.42,2.766,5.889,10.529,0.577,18.84c-7.474,11.686-16.499,13.07-15.157,35.773c1.41-2.188,8.124-9.82,10.279-11.557
				c10.709-8.637,19.621-10.387,26.426-17.619c2.764-2.936,5.48-6.615,6.281-11.076C24.014,174.798,22.078,167.736,12.074,164.761z"
				/>
		</g>
		<linearGradient id="SVGID_49_" gradientUnits="userSpaceOnUse" x1="-74.6042" y1="199.6978" x2="-75.3397" y2="210.3537">
			<stop  offset="0" style="stop-color:#FFFFFF"/>
			<stop  offset="1" style="stop-color:#000000"/>
		</linearGradient>
		<path opacity="0.19" fill="url(#SVGID_49_)" d="M-64.055,197.927c-2.144,0.064-4.04,1.156-5.351,2.844
			c-1.422-1.773-3.486-2.865-5.758-2.795c-1.997,0.061-3.781,1.014-5.076,2.508c-1.408-2.197-3.716-3.602-6.283-3.521
			c-4.119,0.127-7.339,4.012-7.199,8.682c0.143,4.67,3.598,8.355,7.715,8.229c2-0.061,3.785-1.016,5.078-2.51
			c1.41,2.199,3.717,3.602,6.283,3.523c2.145-0.066,4.041-1.158,5.352-2.844c1.422,1.771,3.486,2.865,5.755,2.797
			c4.119-0.127,7.341-4.014,7.196-8.684C-56.484,201.484-59.939,197.802-64.055,197.927z"/>
		<path fill="#542424" d="M-42.869,151.982c-0.756-0.273-1.881,0.357-2.535,0.672c-0.842,0.404-1.601,0.889-2.369,1.42
			c-0.508,0.355-1.016,0.711-1.514,1.082c-0.864,0.645-1.717,1.369-2.359,2.24c-0.238,0.322-1.068,1.063-0.798,1.506
			c0.339,0.555,1.328-0.178,1.657-0.395c0.708-0.463,1.396-0.936,2.152-1.32c1.504-0.77,3.138-1.373,4.777-1.781
			c0.261-0.064,0.804-0.02,1.199-0.09c0.176-0.033,0.325-0.088,0.405-0.188c0.2-0.234-0.062-0.809-0.073-1.092
			C-42.349,153.453-42.133,152.246-42.869,151.982z"/>
		<path fill="#B73533" d="M-42.989,152.552c-0.624-0.088-1.08,1.072-1.162,1.523c-0.034,0.186-0.026,0.459,0.03,0.682
			c0.02,0.082,0.045,0.156,0.079,0.219c0.188,0.35,0.582,0.111,0.892,0.014c0.105-0.031,0.408-0.035,0.479-0.1
			c0.193-0.18-0.023-0.943-0.016-1.207C-42.68,153.376-42.531,152.617-42.989,152.552z"/>
		
			<ellipse transform="matrix(-0.5197 -0.8543 0.8543 -0.5197 -215.1419 196.3741)" fill="#B73533" cx="-52.372" cy="158.662" rx="3.251" ry="2.714"/>
		<path opacity="0.19" fill="#FFFFFF" d="M-55.15,149.654c-2.082-1.143-4.172-1.41-6.512-0.818
			c-2.484,0.629-4.637,2.381-4.139,5.105c0.443,2.432,3.188,4.139,5.36,5.035c1.003,0.412,3.436,1.271,4.405,0.305
			c0.244-0.244,0.17-0.609,0.053-0.961c-0.279-0.826-1.002-1.227-1.1-2.152c-0.162-1.516,0.936-2.512,2.232-3.051
			c1.021-0.424,2.59-0.039,1.96-1.6C-53.271,150.574-54.299,150.119-55.15,149.654z"/>
	</g>
</g>
</svg>
